<?xml version="1.0" encoding="UTF-8"?>
<svg width="17px" height="16px" viewBox="0 0 17 16" version="1.1" xmlns="http://www.w3.org/2000/svg" xmlns:xlink="http://www.w3.org/1999/xlink">
    <!-- Generator: sketchtool 49.3 (51167) - http://www.bohemiancoding.com/sketch -->
    <title>376EE426-2EFC-4336-AC26-9911773120A8</title>
    <desc>Created with sketchtool.</desc>
    <defs></defs>
    <g id="Symbols" stroke="none" stroke-width="1" fill="none" fill-rule="evenodd">
        <g id="mobile/TOP_MENU_BUYER" transform="translate(-168.000000, -23.000000)" fill="#9B9B9B">
            <g id="TOP_MENU">
                <g id="Account" transform="translate(168.000000, 22.000000)">
                    <path d="M14.2945145,13.6830793 C13.5283438,13.377744 11.7189514,12.7787403 10.5995668,12.463405 C10.5034897,12.4347381 10.4888162,12.4300714 10.4888162,12.0510691 C10.4888162,11.7377338 10.6236734,11.4223985 10.7553862,11.1553968 C10.898279,10.865395 11.0677239,10.3777253 11.1281651,9.94005587 C11.2983088,9.7520547 11.5295924,9.38105238 11.678075,8.67371463 C11.8087398,8.0503774 11.7475999,7.82337598 11.6613052,7.61037465 C11.6522216,7.58804117 11.6424392,7.5657077 11.6361505,7.54370756 C11.6033096,7.39770665 11.6480291,6.63803524 11.7598278,6.04903156 C11.8373882,5.6446957 11.7402631,4.78502366 11.1571629,4.07368588 C10.7885765,3.6240164 10.0831964,3.07234629 8.79576429,2.9953458 L8.08933613,2.99601247 C6.82356499,3.07234629 6.11853432,3.6240164 5.74994791,4.07368588 C5.16649834,4.78502366 5.06972258,5.6446957 5.1465842,6.04869822 C5.25908166,6.63803524 5.30380115,7.39770665 5.27165901,7.54070755 C5.26432222,7.5657077 5.25488921,7.58804117 5.24580556,7.61037465 C5.15951092,7.82337598 5.098371,8.0503774 5.22903575,8.67371463 C5.37751843,9.38105238 5.60880203,9.7520547 5.77894571,9.94005587 C5.83938689,10.3777253 6.00848245,10.865395 6.15137519,11.1553968 C6.25618649,11.3677315 6.30509843,11.6563999 6.30509843,12.0647358 C6.30509843,12.4437382 6.29042485,12.4484049 6.2006365,12.4754051 C5.04282101,12.8014071 3.19953961,13.4370777 2.51232686,13.7240795 C1.38211167,12.4470715 0.698741999,10.7987279 0.698741999,9.00005 C0.698741999,4.95635806 4.14668439,1.66667083 8.38490399,1.66667083 C12.6231236,1.66667083 16.071066,4.95635806 16.071066,9.00005 C16.071066,10.7790611 15.4030686,12.4120713 14.2945145,13.6830793 M8.38490399,1 C3.75399139,1 0,4.58135572 0,9.00005 C0,13.4187443 3.75399139,17.0001 8.38490399,17.0001 C13.016166,17.0001 16.769808,13.4187443 16.769808,9.00005 C16.769808,4.58135572 13.016166,1 8.38490399,1" id="Icon_Account"></path>
                </g>
            </g>
        </g>
    </g>
</svg>