<?xml version="1.0" encoding="UTF-8" standalone="no"?>
<svg width="10px" height="6px" viewBox="0 0 10 6" version="1.1" xmlns="http://www.w3.org/2000/svg" xmlns:xlink="http://www.w3.org/1999/xlink">
    <!-- Generator: sketchtool 49.1 (51147) - http://www.bohemiancoding.com/sketch -->
    <title>5DDA11BF-C4DF-4E93-87CC-C29A84971505</title>
    <desc>Created with sketchtool.</desc>
    <defs></defs>
    <g id="Symbols" stroke="none" stroke-width="1" fill="none" fill-rule="evenodd">
        <g id="mobile/TOP_MENU_BUYER" transform="translate(-267.000000, -29.000000)" fill="#7EA1EA">
            <g id="TOP_MENU">
                <g id="Account" transform="translate(168.000000, 22.000000)">
                    <g id="Arrow_Blue" transform="translate(103.762538, 10.000000) scale(1, -1) rotate(-180.000000) translate(-103.762538, -10.000000) translate(98.522006, 7.000000)">
                        <path d="M9.90888786,0.825091998 C9.90888786,0.910714753 9.87552835,0.987441637 9.8099213,1.05416067 L5.18295661,5.68001338 C5.11623758,5.74673241 5.04062268,5.78009192 4.95388794,5.78009192 C4.86826519,5.78009192 4.79265029,5.74673241 4.72593126,5.68001338 L0.0989665604,1.05416067 C0.0333595147,0.987441637 0,0.910714753 0,0.825091998 C0,0.739469244 0.0333595147,0.66274236 0.0989665604,0.59602333 L0.59602333,0.100078544 C0.66274236,0.0333595147 0.73835726,0 0.825091998,0 C0.910714753,0 0.986329653,0.0333595147 1.05304868,0.100078544 L4.95499992,4.00202979 L8.85695117,0.100078544 C8.92367019,0.0333595147 8.99928509,0 9.08601983,0 C9.17164259,0 9.24725749,0.0333595147 9.31397652,0.100078544 L9.8099213,0.59602333 C9.87664033,0.66274236 9.90999985,0.739469244 9.90999985,0.825091998 L9.90888786,0.825091998 Z" id="Arrow"></path>
                    </g>
                </g>
            </g>
        </g>
    </g>
</svg>