<?xml version="1.0" encoding="UTF-8" standalone="no"?>
<svg width="16px" height="16px" viewBox="0 0 16 16" version="1.1" xmlns="http://www.w3.org/2000/svg" xmlns:xlink="http://www.w3.org/1999/xlink">
    <!-- Generator: sketchtool 49.1 (51147) - http://www.bohemiancoding.com/sketch -->
    <title>D0CC6C15-3D09-49D9-A560-E30016A88906</title>
    <desc>Created with sketchtool.</desc>
    <defs></defs>
    <g id="MOBILE--Buyer---Seller" stroke="none" stroke-width="1" fill="none" fill-rule="evenodd">
        <g id="MOBILE---BUYER/10-RESET_CONTACT" transform="translate(-100.000000, -311.000000)" fill="#FFFFFF">
            <g id="CIRCLE" transform="translate(13.000000, 93.000000)">
                <g id="Txt" transform="translate(37.000000, 71.000000)">
                    <path d="M53.4618704,148.375373 L55.5922522,150.507528 C55.7506751,150.64321 55.8227207,150.771333 55.821365,150.882787 C55.819622,151.017694 55.7152333,151.130892 55.5922522,151.240408 C55.5922522,151.240408 54.7865805,152.048107 54.7743792,152.061287 C54.2973674,152.539471 54.2036306,153.27177 54.6238968,153.802676 L58.6909893,157.873154 C59.2324936,158.302493 59.9409424,158.161964 60.4014922,157.760731 C60.4268631,157.738247 61.257131,156.904187 61.257131,156.904187 C61.3903767,156.762301 61.5104528,156.689614 61.6208453,156.691553 C61.7595138,156.694072 61.8817202,156.802425 61.9833975,156.904187 L64.1137793,159.036342 C64.4337239,159.366438 64.3721365,159.593997 64.143992,159.738984 L62.5946234,161.09581 C62.442979,161.228585 62.0707432,161.344109 61.6202643,161.344109 C60.1526249,161.343915 57.3343235,160.106683 54.8659857,157.637066 C52.3982289,155.166674 51.1620264,152.346027 51.1620264,150.876972 C51.1620264,150.426312 51.2714506,150.053573 51.4041153,149.901802 L52.7598128,148.351144 C53.0003522,148.058845 53.2201689,148.13851 53.4618704,148.375373 M53.0867295,147.000327 C52.5888012,147.011181 52.1505236,147.281965 51.8882929,147.581823 L50.5325954,149.132482 C50.0985786,149.62908 50,150.273185 50,150.876972 C50,152.929268 51.4105064,155.819501 54.0428836,158.454651 C56.6756481,161.089219 59.569675,162.506909 61.6202643,162.506909 C62.2235496,162.506909 62.8611148,162.408248 63.3573001,161.97387 L64.9066687,160.617044 C65.2064715,160.354595 65.4826464,159.915953 65.4936857,159.417804 C65.5049186,158.898915 65.2242892,158.50621 64.9368813,158.218369 L62.8064996,156.086214 C62.5347791,155.814268 62.1243901,155.528947 61.6202643,155.528947 C61.0785663,155.528947 60.6739874,155.846056 60.4340289,156.086214 L59.6653485,156.849526 C59.5404306,156.960592 59.4740014,157.004592 59.4292634,156.970671 L55.5318268,153.069797 C55.4791483,152.990132 55.5612648,152.925973 55.6058091,152.872281 C55.6162674,152.86007 56.4153542,152.058186 56.4153542,152.058186 C56.6553127,151.818028 56.9721586,151.419121 56.9721586,150.876972 C56.9721586,150.37262 56.6872684,149.96189 56.4153542,149.689749 L54.2849724,147.557594 C53.9975646,147.269947 53.6049933,146.989084 53.0867295,147.000327" id="Icon_Phone"></path>
                </g>
            </g>
        </g>
    </g>
</svg>