<?xml version="1.0" encoding="UTF-8" standalone="no"?>
<svg width="19px" height="14px" viewBox="0 0 19 14" version="1.1" xmlns="http://www.w3.org/2000/svg" xmlns:xlink="http://www.w3.org/1999/xlink">
    <!-- Generator: sketchtool 49.1 (51147) - http://www.bohemiancoding.com/sketch -->
    <title>7F376D5A-6396-4C30-A3AF-1EB19254E975</title>
    <desc>Created with sketchtool.</desc>
    <defs></defs>
    <g id="Symbols" stroke="none" stroke-width="1" fill="none" fill-rule="evenodd">
        <g id="Menu_Hamburger_Off" transform="translate(-14.000000, -16.000000)" fill="#BAC1CA">
            <path d="M33,28.375 C33,28.168 32.8363077,28 32.6346154,28 L14.3653846,28 C14.1636923,28 14,28.168 14,28.375 L14,29.625 C14,29.832 14.1636923,30 14.3653846,30 L32.6346154,30 C32.8363077,30 33,29.832 33,29.625 L33,28.375 Z M33,22.375 C33,22.168 32.8363077,22 32.6346154,22 L14.3653846,22 C14.1636923,22 14,22.168 14,22.375 L14,23.625 C14,23.832 14.1636923,24 14.3653846,24 L32.6346154,24 C32.8363077,24 33,23.832 33,23.625 L33,22.375 Z M33,17.625 C33,17.832 32.8363077,18 32.6346154,18 L14.3653846,18 C14.1636923,18 14,17.832 14,17.625 L14,16.375 C14,16.168 14.1636923,16 14.3653846,16 L32.6346154,16 C32.8363077,16 33,16.168 33,16.375 L33,17.625 Z" id="Icon_Menu"></path>
        </g>
    </g>
</svg>